<?xml version="1.0" encoding="UTF-8"?>
<svg width="60px" height="60px" viewBox="0 0 60 60" version="1.1" xmlns="http://www.w3.org/2000/svg" xmlns:xlink="http://www.w3.org/1999/xlink">
    <!-- Generator: Sketch 51.2 (57519) - http://www.bohemiancoding.com/sketch -->
    <title>Oval</title>
    <desc>Created with Sketch.</desc>
    <defs>
        <linearGradient x1="91.9682876%" y1="34.9269816%" x2="0%" y2="65.0681234%" id="linearGradient-1">
            <stop stop-color="#D30530" offset="0%"></stop>
            <stop stop-color="#DF0808" offset="100%"></stop>
        </linearGradient>
        <circle id="path-2" cx="20" cy="20" r="20"></circle>
        <filter x="-47.5%" y="-27.5%" width="195.0%" height="195.0%" filterUnits="objectBoundingBox" id="filter-4">
            <feOffset dx="0" dy="8" in="SourceAlpha" result="shadowOffsetOuter1"></feOffset>
            <feGaussianBlur stdDeviation="5" in="shadowOffsetOuter1" result="shadowBlurOuter1"></feGaussianBlur>
            <feColorMatrix values="0 0 0 0 0.850980392   0 0 0 0 0.0235294118   0 0 0 0 0.109803922  0 0 0 0.300498188 0" type="matrix" in="shadowBlurOuter1"></feColorMatrix>
        </filter>
    </defs>
    <g id="Page-1" stroke="none" stroke-width="1" fill="none" fill-rule="evenodd">
        <g id="Widget" transform="translate(-38.000000, -43.000000)">
            <g id="Oval" transform="translate(48.000000, 45.000000)">
                <mask id="mask-3" fill="white">
                    <use xlink:href="#path-2"></use>
                </mask>
                <g fill-rule="nonzero">
                    <use fill="black" fill-opacity="1" filter="url(#filter-4)" xlink:href="#path-2"></use>
                    <use fill="url(#linearGradient-1)" xlink:href="#path-2"></use>
                </g>
                <path d="M-7,32.9186576 C1.66666667,24.1020731 17.6666667,21.1632116 41,24.1020731 C64.3333333,27.0409346 61.6666667,33.338495 33,42.9947542 C22.3208213,44.3350819 14.3208213,44.3350819 9,42.9947542 C3.67917868,41.6544265 -1.65415465,38.2957276 -7,32.9186576 Z" id="Path-5" fill="#FFFFFF" fill-rule="nonzero" opacity="0.146205357" mask="url(#mask-3)"></path>
                <path d="M-2,12 C8.66666667,26 20,33 32,33 C44,33 53,36 59,42 L1.77635684e-15,46 L-10,20 L-2,12 Z" id="Path-6" fill="#FFFFFF" fill-rule="nonzero" opacity="0.146205357" mask="url(#mask-3)"></path>
                <path d="M-26,31 C-14,23 -0.666666667,19 14,19 C28.6666667,19 44.6666667,36.3333333 62,71 L-26,31 Z" id="Path-7" fill="#FFFFFF" fill-rule="nonzero" opacity="0.1" mask="url(#mask-3)"></path>
            </g>
        </g>
    </g>
</svg>